<svg xmlns="http://www.w3.org/2000/svg" width="170" height="170" viewBox="0 0 170 170">
  <g id="alt_route_black_24dp" transform="translate(0.155 0.155)">
    <rect id="Retângulo_1345" data-name="Retângulo 1345" width="170" height="170" transform="translate(-0.155 -0.155)" fill="none"/>
    <path id="Caminho_1175" data-name="Caminho 1175" d="M50.554,66.247l-9.96,9.96A51.072,51.072,0,0,1,28.039,55.586l13.607-3.437A37.5,37.5,0,0,0,50.554,66.247Zm8.557-36.191L31.055,2,3,30.055H24.182a105.068,105.068,0,0,0,1.333,15.22l13.607-3.437a92.687,92.687,0,0,1-.912-11.783Zm70.138,0L101.194,2,73.138,30.055H94.11c-.7,25.811-8.978,33.316-17.815,41.241a60.821,60.821,0,0,0-10.17,10.871,50.026,50.026,0,0,0-7.926-8.7l-9.89,9.89c6.523,5.962,10.8,10.8,10.8,23.847h0v35.069H73.138V107.208h0c0-14.168,4.98-18.657,12.555-25.46,9.679-8.7,21.6-19.5,22.444-51.692Z" transform="translate(18.72 12.706)" fill="#005271"/>
  </g>
</svg>
