<svg id="headset_mic_black_24dp" xmlns="http://www.w3.org/2000/svg" width="171" height="171" viewBox="0 0 171 171">
  <path id="Caminho_1188" data-name="Caminho 1188" d="M0,0H171V171H0Z" fill="none"/>
  <path id="Caminho_1189" data-name="Caminho 1189" d="M115.889,93.379V121.8H101.778V93.379h14.111m-84.667,0V121.8H24.167a7.1,7.1,0,0,1-7.056-7.106V93.379H31.222M66.5,1C31.434,1,3,29.637,3,64.955V114.7a21.214,21.214,0,0,0,21.167,21.318H45.333V79.167H17.111V64.955a49.39,49.39,0,1,1,98.778,0V79.167H87.667v56.849h28.222v7.106H66.5v14.212h42.333A21.214,21.214,0,0,0,130,136.015V64.955C130,29.637,101.566,1,66.5,1Z" transform="translate(19 6.333)" fill="#005271"/>
</svg>
