<svg id="inventory_black_24dp" xmlns="http://www.w3.org/2000/svg" width="171" height="171" viewBox="0 0 171 171">
  <g id="Grupo_529" data-name="Grupo 529">
    <rect id="Retângulo_1350" data-name="Retângulo 1350" width="171" height="171" fill="none"/>
  </g>
  <g id="Grupo_531" data-name="Grupo 531" transform="translate(21.375 7.125)">
    <g id="Grupo_530" data-name="Grupo 530">
      <path id="Caminho_1194" data-name="Caminho 1194" d="M17.25,29.5H31.5v7.125a14.292,14.292,0,0,0,14.25,14.25H88.5a14.292,14.292,0,0,0,14.25-14.25V29.5H117V65.125h14.25V29.5A14.292,14.292,0,0,0,117,15.25H87.217a21.29,21.29,0,0,0-40.185,0H17.25A14.292,14.292,0,0,0,3,29.5v99.75A14.292,14.292,0,0,0,17.25,143.5H60V129.25H17.25ZM67.125,15.25A7.125,7.125,0,1,1,60,22.375,7.146,7.146,0,0,1,67.125,15.25Z" transform="translate(-3 -1)" fill="#005271"/>
      <path id="Caminho_1195" data-name="Caminho 1195" d="M84.883,14.133a7.612,7.612,0,0,0-10.687,0L40.423,47.977l-16.1-16.031a7.612,7.612,0,0,0-10.687,0h0a7.612,7.612,0,0,0,0,10.688l21.731,21.66a7.1,7.1,0,0,0,10.046,0l39.4-39.472A7.547,7.547,0,0,0,84.883,14.133Z" transform="translate(48.71 66.023)" fill="#005271"/>
    </g>
  </g>
</svg>
